<svg width="170" height="48" viewBox="0 0 170 48" fill="none" xmlns="http://www.w3.org/2000/svg">
<path d="M7.67822 37H13.0078L17.8135 19.5298H17.9219L22.7095 37H28.0391L34.9585 10.9302H29.3037L25.1665 29.6108H25.0581L20.2524 10.9302H15.4648L10.6592 29.6108H10.5508L6.43164 10.9302H0.776855L7.67822 37ZM40.7578 37.3071C43.3052 37.3071 45.3647 36.0967 46.4668 34.1094H46.5752V37H51.8506V23.7212C51.8506 19.8188 48.6167 17.2354 43.6123 17.2354C38.4995 17.2354 35.4282 19.8008 35.1392 23.3779L35.1211 23.5947H39.9448L39.981 23.4321C40.2339 22.1855 41.4263 21.2642 43.3955 21.2642C45.4551 21.2642 46.5752 22.3301 46.5752 24.0464V25.2388L41.7876 25.5278C36.9819 25.835 34.2539 27.8945 34.2539 31.4175V31.4536C34.2539 34.8682 36.8735 37.3071 40.7578 37.3071ZM39.4751 31.1826V31.1465C39.4751 29.7734 40.541 28.9062 42.5825 28.7798L46.5752 28.5269V29.918C46.5752 31.9414 44.8408 33.459 42.4741 33.459C40.6494 33.459 39.4751 32.6099 39.4751 31.1826ZM63.2324 37.3975C68.2188 37.3975 71.7056 34.9043 71.7056 31.1104V31.0923C71.7056 28.2378 70.0435 26.6479 65.9966 25.7988L62.7085 25.0942C60.7573 24.6787 60.0889 24.0283 60.0889 23.0347V23.0166C60.0889 21.77 61.2271 20.957 63.0518 20.957C65.0029 20.957 66.1411 22.0049 66.3218 23.396L66.3398 23.5405H71.1997V23.3599C71.0732 19.9634 68.2007 17.2354 63.0518 17.2354C58.1196 17.2354 54.9399 19.6201 54.9399 23.3057V23.3237C54.9399 26.2144 56.8369 28.0933 60.5947 28.8882L63.8828 29.5747C65.7798 29.9902 66.4302 30.5864 66.4302 31.6162V31.6343C66.4302 32.8809 65.2197 33.6577 63.2324 33.6577C61.1187 33.6577 59.9805 32.7725 59.6372 31.2549L59.6011 31.0923H54.4521L54.4702 31.2549C54.8857 34.9224 57.8667 37.3975 63.2324 37.3975ZM82.0034 37.3975C83.1055 37.3975 83.9546 37.2891 84.5508 37.1987V33.3325C84.2256 33.3687 83.8823 33.4229 83.4126 33.4229C81.8228 33.4229 81.0098 32.8086 81.0098 31.002V21.6074H84.5508V17.6328H81.0098V12.8994H75.6802V17.6328H72.9883V21.6074H75.6802V31.5801C75.6802 35.7354 77.7036 37.3975 82.0034 37.3975ZM95.9868 37.3975C101.515 37.3975 104.189 34.1274 104.785 31.2729L104.839 31.0742H99.9976L99.9614 31.1826C99.582 32.2666 98.2632 33.459 96.0952 33.459C93.4033 33.459 91.7231 31.6523 91.6689 28.563H105.002V26.937C105.002 21.0835 101.443 17.2354 95.77 17.2354C90.0972 17.2354 86.4658 21.1738 86.4658 27.3345V27.3525C86.4658 33.5493 90.061 37.3975 95.9868 37.3975ZM95.8604 21.1738C98.0464 21.1738 99.6182 22.5649 99.9434 25.2388H91.7231C92.0664 22.6191 93.6924 21.1738 95.8604 21.1738ZM107.73 43.3232H113.005V33.6938H113.114C114.162 35.9883 116.348 37.3975 119.112 37.3975C123.954 37.3975 126.953 33.6035 126.953 27.3164V27.2983C126.953 20.9932 123.954 17.2354 119.04 17.2354C116.293 17.2354 114.18 18.6626 113.132 21.0112H113.005V17.6328H107.73V43.3232ZM117.305 33.0254C114.74 33.0254 112.987 30.8213 112.987 27.3345V27.3164C112.987 23.8115 114.74 21.6074 117.305 21.6074C119.925 21.6074 121.587 23.7573 121.587 27.2983V27.3164C121.587 30.8394 119.925 33.0254 117.305 33.0254ZM150.289 37H155.564V25.8711C155.564 23.3418 157.064 21.6074 159.43 21.6074C161.797 21.6074 162.989 23.0527 162.989 25.582V37H168.265V24.498C168.265 19.9634 165.844 17.2354 161.58 17.2354C158.653 17.2354 156.666 18.5903 155.672 20.8125H155.564V17.6328H150.289V37Z" fill="#1A2151"/>
<path d="M138 3C131.352 3 126 8.35082 126 14.8721C126 17.3246 126.732 19.6656 128.141 21.6721L132.648 29.4197L136.592 36.1639C136.873 36.7213 137.437 37 138 37C138.563 37 139.127 36.7213 139.408 36.2197L147.859 21.7279C149.268 19.7213 150 17.3803 150 14.9279C150 8.35082 144.648 3 138 3ZM132.197 14.8721C132.197 11.6951 134.789 9.13115 138 9.13115C141.211 9.13115 143.803 11.6951 143.803 14.8721C143.803 18.0492 141.211 20.6131 138 20.6131C134.789 20.6131 132.197 18.0492 132.197 14.8721Z" fill="#8352FD"/>
</svg>
