<svg width="337" height="301" viewBox="0 0 337 301" fill="none" xmlns="http://www.w3.org/2000/svg">
<path fill-rule="evenodd" clip-rule="evenodd" d="M279.064 59.2608V26.1602H279.735V59.2608H279.064Z" fill="#B5CDFB"/>
<path d="M1 285.769H191.979" stroke="#005B9D" stroke-width="1.01001" stroke-miterlimit="10" stroke-linecap="round"/>
<path d="M331.293 31.5908C334.216 31.5908 336.586 29.2199 336.586 26.2954C336.586 23.3709 334.216 21 331.293 21C328.37 21 326 23.3709 326 26.2954C326 29.2199 328.37 31.5908 331.293 31.5908Z" fill="#9F8AFF"/>
<path fill-rule="evenodd" clip-rule="evenodd" d="M193.351 22.1622H164.221V21.4909H194.022V69.3929H193.351V22.1622Z" fill="#B5CDFB"/>
<path d="M8.85229 64.0982V50.7466H22.8839" stroke="#005B9D" stroke-width="1.24375" stroke-miterlimit="10"/>
<path d="M129.301 190.975V231.208" stroke="#005B9D" stroke-width="1.24375" stroke-miterlimit="10"/>
<path d="M206.451 286.105C206.451 286.105 194.706 273.26 197.391 273.26C200.075 273.26 207.458 279.304 207.458 279.304C207.458 279.304 210.774 266.46 217.485 260.416C217.485 260.416 218.896 271.693 217.554 277.736C217.554 277.736 221.638 268.31 227.007 270.324C227.007 270.324 222.837 285.444 221.888 286.105" stroke="#005B9D" stroke-width="1.01001" stroke-miterlimit="10" stroke-linecap="round"/>
<path d="M227.414 54.8879C207.868 54.8879 191.827 69.7853 191.827 88.285C191.827 94.2017 193.541 99.7406 196.415 104.549C196.438 104.589 196.426 104.649 196.449 104.688C196.489 104.784 196.536 104.877 196.588 104.966C196.609 105.025 196.633 105.083 196.658 105.14L225.607 151.882C225.817 152.224 226.111 152.506 226.46 152.701C226.81 152.897 227.204 153 227.605 153C228.006 153 228.4 152.897 228.75 152.701C229.1 152.506 229.394 152.224 229.604 151.882L258.031 105.279C258.067 105.234 258.102 105.188 258.135 105.14V105.105L258.204 105.001C258.216 104.988 258.231 104.98 258.239 104.966C258.322 104.835 258.392 104.695 258.447 104.549C261.323 99.74 263 94.2045 263 88.2853C263 69.9223 247.183 55.1377 227.83 54.923C227.716 54.9029 227.599 54.8913 227.483 54.8885H227.414L227.414 54.8879ZM227.379 59.5795C227.391 59.5796 227.402 59.5796 227.414 59.5795C244.592 59.5795 258.309 72.5008 258.309 88.285C258.309 93.483 256.819 98.3164 254.208 102.534C254.17 102.601 254.135 102.671 254.104 102.742C254.103 102.753 254.103 102.765 254.104 102.776L227.587 146.182L200.897 103.089V103.055C200.84 102.921 200.77 102.793 200.689 102.673C198.028 98.426 196.519 93.5371 196.519 88.285C196.519 72.5136 210.217 59.5971 227.379 59.5795H227.379ZM227.414 68.4413C216.29 68.4413 207.223 76.9249 207.223 87.3119C207.223 97.699 216.29 106.148 227.414 106.148C238.538 106.148 247.605 97.699 247.605 87.3119C247.605 76.9249 238.538 68.4413 227.414 68.4413V68.4413ZM227.414 72.9939C235.915 72.9939 242.74 79.3735 242.74 87.3119C242.74 95.2502 235.915 101.63 227.414 101.63C218.913 101.63 212.088 95.2503 212.088 87.3119C212.088 79.3737 218.913 72.9939 227.414 72.9939Z" fill="black"/>
<path d="M104.567 258.258H111.098L112.198 249.243H104.567V258.258Z" fill="#EEB489"/>
<path d="M84.7616 258.258H91.2925L91.6604 249.243H84.0295L84.7616 258.258Z" fill="#EEB489"/>
<path d="M111.532 254.704C111.532 254.704 124.531 259.071 132.389 260.453C134.508 260.825 133.835 264.428 133.835 264.428L104.066 263.661C103.58 263.652 103.177 263.348 103.121 262.945C102.923 261.505 102.618 257.603 103.951 256.26C104.22 255.989 104.853 256.229 105.44 256.396C106.092 256.582 107.192 259.32 111.17 256.601C111.543 256.346 111.098 255.06 111.532 254.704Z" fill="#0E0F25"/>
<path d="M91.1486 254.687C91.1486 254.687 104.133 259.086 111.986 260.487C114.103 260.864 113.417 264.466 113.417 264.466L83.6518 263.626C83.1658 263.616 82.7636 263.311 82.7093 262.907C82.5155 261.467 82.2247 257.564 83.5629 256.224C83.8319 255.955 84.4642 256.195 85.0508 256.364C85.7018 256.551 86.7922 259.293 90.7804 256.583C91.1541 256.329 90.7131 255.042 91.1486 254.687Z" fill="#0E0F25"/>
<path d="M99.4774 168.1H115.109V252.029H99.4774V168.1Z" fill="#F26B6B"/>
<path d="M81.973 168.1H96.7954V252.029H81.973V168.1Z" fill="#F26B6B"/>
<path d="M82.7 168.1H115.109V180.657H82.7V168.1Z" fill="#F26B6B"/>
<path d="M51.2021 195.674C51.256 195.892 47.8677 207.797 50.9281 209.273C52.3598 209.457 52.3191 203.717 52.3191 203.717C52.3191 203.717 52.4464 211.207 54.2596 211.066C56.0727 210.925 55.7095 203.571 55.7095 203.571C55.7095 203.571 56.326 211.171 57.994 211.066C59.6621 210.961 60.5944 199.796 60.5944 199.796C60.5944 199.796 61.8846 205.07 62.8814 205.208C63.8781 205.347 65.7483 198.004 65.0281 195.872C64.3079 193.741 51.2021 195.674 51.2021 195.674Z" fill="#EEB489"/>
<path d="M86.389 89.9761C86.389 89.9761 71.1802 88.5603 61.6894 121.438C52.1986 154.315 45.5112 200.01 45.5112 200.01L69.0912 198.624L84.166 115.634C84.166 115.634 89.876 96.6471 86.389 89.9761Z" fill="#161F40"/>
<path d="M162.212 102.358L161.863 114.269C162.317 115.071 169.151 108.7 170.501 106.991C172.613 104.318 172.385 99.8542 171.931 99.0516L165.879 101.46C165.426 100.657 165.441 95.2523 164.638 95.7056H164.638C163.619 95.6112 162.688 96.2901 162.474 97.2913C162.081 99.1265 161.906 101.817 162.212 102.358Z" fill="#CEA28B"/>
<path d="M162.212 102.359L161.863 114.269C162.317 115.072 169.151 108.7 170.501 106.991C172.613 104.318 172.385 99.8543 171.931 99.0518L165.879 101.46C165.426 100.658 161.906 101.818 162.212 102.359Z" fill="#EEB489"/>
<path d="M147.995 123.153C147.995 123.153 159.767 106.683 160.347 106.303C163.592 104.181 167.66 100.644 167.987 100.437C171.455 98.232 168.758 108.22 166.076 110.689C164.992 111.687 163.305 112.637 162.241 114.281C158.377 120.256 155.592 129.414 155.322 129.322C151.304 127.945 147.995 123.153 147.995 123.153Z" fill="#EEB489"/>
<path d="M155.007 110.5H155.007C155.765 111.209 156.373 111.598 157.048 110.81L174.995 89.6899C175.769 88.9727 175.269 88.4307 174.412 88.0914C173.8 87.8492 172.458 87.4478 171.783 88.236L154.869 107.986C154.235 108.726 154.296 109.834 155.007 110.5Z" fill="#0095FF"/>
<path d="M155.882 111.099C156.32 111.535 157.25 111.242 157.925 110.453L174.84 90.7032C175.473 89.9632 175.648 89.0573 175.236 88.6475H175.236C174.798 88.211 173.868 88.5047 173.193 89.2928L156.278 109.043C155.645 109.783 155.47 110.689 155.882 111.099Z" fill="#161F40"/>
<path d="M166.359 94.4926L169.367 101.368C169.749 102.242 172.314 99.9255 171.931 99.0513L169.524 93.1075C169.142 92.2333 168.123 91.8347 167.249 92.2171H167.249C166.375 92.5996 165.976 93.6184 166.359 94.4926Z" fill="#EEB489"/>
<path d="M164.014 98.9826L166.744 104.576C167.148 105.405 168.147 105.748 168.976 105.344H168.976C169.804 104.94 170.148 103.941 169.743 103.112L167.013 97.5186C166.609 96.6903 165.61 96.3465 164.781 96.7508L164.781 96.7508C163.953 97.1551 163.609 98.1543 164.014 98.9826Z" fill="#EEB489"/>
<path d="M161.957 102.965L164.538 107.535C164.964 108.29 165.921 108.556 166.675 108.13L166.85 108.031C167.604 107.605 167.87 106.648 167.444 105.894L164.863 101.324C164.437 100.569 163.48 100.303 162.725 100.729L162.551 100.828C161.796 101.254 161.53 102.211 161.957 102.965Z" fill="#EEB489"/>
<path d="M161.025 105.91L163.008 109.42C163.335 109.999 164.07 110.203 164.649 109.876L164.783 109.8C165.363 109.473 165.567 108.738 165.24 108.159L163.257 104.649C162.93 104.07 162.195 103.866 161.616 104.193L161.482 104.269C160.903 104.596 160.698 105.331 161.025 105.91Z" fill="#EEB489"/>
<path d="M158.145 114.403L144.022 135.003C144.118 135.476 119.499 106.745 119.499 106.745" stroke="#161F40" stroke-width="21.8081" stroke-miterlimit="10"/>
<path d="M93.3309 83.2932C92.6714 83.3371 78.9079 105.56 78.9079 105.56L75.9434 111.234L78.9079 170.455H124.219L121.731 111.865C121.731 111.865 120.991 102.718 119.629 100.923C114.391 94.0177 114.87 90.9657 106.474 83.7798L93.3309 83.2932Z" fill="#8352FD"/>
<path d="M106.619 83.7C106.619 83.7 118.287 95.8506 112.204 103.923C106.122 111.996 108.647 179.193 108.647 179.193H128.592L128.592 110.294C128.592 110.294 131.227 93.2306 106.619 83.7Z" fill="#161F40"/>
<path d="M93.8398 83.2932C93.8398 83.2932 82.8588 95.8505 88.5881 103.923C94.3173 111.996 92.3086 180.018 92.3086 180.018H74.2576L72.1591 113.754C72.1591 113.754 63.284 95.8505 93.8398 83.2932Z" fill="#161F40"/>
<path d="M95.3013 78.1358H104.543V92.4309H95.3013V78.1358Z" fill="#EEB489"/>
<path d="M108.397 88.2843C108.397 88.2843 106.928 93.4763 98.993 92.6926C91.0581 91.9089 91.4499 87.4026 91.4499 87.4026" stroke="#161F40" stroke-width="1.75653" stroke-miterlimit="10" stroke-linecap="round"/>
<path d="M104.543 80.217L96.1119 80.3034C96.1119 80.3034 103.22 85.8898 104.543 84.9839V80.217Z" fill="#161F40"/>
<path d="M100.551 81.1817H105.437C111.041 81.1817 115.584 76.6389 115.584 71.035V57.9918C115.584 52.3879 111.041 47.8451 105.437 47.8451H98.822C93.2181 47.8451 88.6753 52.3879 88.6753 57.9918V69.3056C88.6753 75.8646 93.9924 81.1817 100.551 81.1817Z" fill="#EEB489"/>
<path d="M88.6838 68.6244C86.7848 68.6244 85.2455 66.8842 85.2455 64.7376C85.2455 62.591 86.7848 60.8508 88.6838 60.8508C90.5827 60.8508 92.1221 62.591 92.1221 64.7376C92.1221 66.8842 90.5827 68.6244 88.6838 68.6244Z" fill="#EEB489"/>
<path d="M122.285 46.6619C122.509 44.5963 122.865 41.3969 120.716 39.9348C118.682 38.5513 115.502 39.2827 114.213 40.9439C113.063 42.4259 113.532 44.5015 113.204 44.5317C112.692 44.5787 112.999 39.4004 110.064 37.2439C108.226 35.8932 105.168 35.7665 103.898 37.1318C101.784 39.4033 103.541 42.6681 103.063 42.858C102.528 43.0707 101.963 37.4805 96.9464 36.1228C93.7825 35.2665 89.7371 37.2959 89.5466 39.2621C89.2616 42.2029 97.5352 45.6782 97.6191 45.5407C97.6929 45.42 92.5617 40.7008 88.089 41.8408C86.2374 42.3128 84.5492 43.7761 83.9407 45.6528C82.9676 48.6536 84.7703 52.0781 87.08 53.0527C88.4497 53.6306 88.9475 52.9048 92.3208 52.7347C95.1713 52.5909 97.3476 52.9815 99.7206 53.4074C103.253 54.0414 103.558 54.5529 106.14 55.0708C109.175 55.6795 115.554 56.9589 119.379 53.4074C121.799 51.1599 122.146 47.9534 122.285 46.6619Z" fill="#161F40"/>
<path d="M97.7585 52.5282C97.7585 52.5282 92.4905 59.7933 92.8131 63.2163C93.1357 66.6393 89.3851 63.2163 89.3851 63.2163C89.3851 63.2163 89.2469 60.854 88.442 60.7934C87.6371 60.7327 84.9245 53.2055 88.6751 52.5069C92.4257 51.8083 97.7585 52.5282 97.7585 52.5282Z" fill="#161F40"/>
<path d="M117.763 61.2389L113.181 60.7934" stroke="#161F40" stroke-width="1.75653" stroke-miterlimit="10" stroke-linecap="round"/>
<path d="M99.7073 62.0026L103.923 61.2388" stroke="#161F40" stroke-width="1.75653" stroke-miterlimit="10" stroke-linecap="round"/>
<path d="M109.747 62.7008C110.977 65.7951 111.386 68.0107 111.541 69.3158C111.612 69.9101 111.674 70.6851 111.205 71.1097C110.397 71.8408 108.633 70.9735 108.458 70.8855" stroke="#161F40" stroke-width="0.585508" stroke-miterlimit="10" stroke-linecap="round"/>
<path d="M109.565 75.3462C108.91 76.3271 107.66 76.7012 106.627 76.26C105.698 75.8632 105.116 74.88 105.205 73.8313" stroke="#161F40" stroke-width="0.585508" stroke-miterlimit="10" stroke-linecap="round"/>
<path d="M114.713 65.2422C114.435 65.2422 114.209 65.0163 114.209 64.7376C114.209 64.459 114.435 64.2331 114.713 64.2331C114.992 64.2331 115.218 64.459 115.218 64.7376C115.218 65.0163 114.992 65.2422 114.713 65.2422Z" fill="#161F40"/>
<path d="M103.907 65.2422C103.628 65.2422 103.402 65.0163 103.402 64.7376C103.402 64.459 103.628 64.2331 103.907 64.2331C104.185 64.2331 104.411 64.459 104.411 64.7376C104.411 65.0163 104.185 65.2422 103.907 65.2422Z" fill="#161F40"/>
<path d="M122.791 93.9538C122.791 93.9538 132.662 107.064 126.832 110.204C121.002 113.343 115.47 115.137 117.563 123.658C119.656 132.179 122.497 138.158 118.161 141.148C113.826 144.138 112.78 154.453 112.78 154.453" stroke="#161F40" stroke-width="0.583241" stroke-miterlimit="10" stroke-linecap="round"/>
<path d="M76.8439 91.8321C76.8439 91.8321 66.9729 104.942 72.803 108.082C78.6332 111.221 84.1644 113.015 82.0715 121.536C79.9786 130.057 77.1383 136.037 81.4735 139.027C85.8088 142.016 86.8552 152.331 86.8552 152.331" stroke="#161F40" stroke-width="0.583241" stroke-miterlimit="10" stroke-linecap="round"/>
</svg>
