<svg width="328" height="293" viewBox="0 0 328 293" fill="none" xmlns="http://www.w3.org/2000/svg">
<path fill-rule="evenodd" clip-rule="evenodd" d="M308.018 58.9023V24.8704H308.708V58.9023H308.018Z" fill="#B5CDFB"/>
<path d="M22.1298 291.783H218.482" stroke="#005B9D" stroke-width="1.01001" stroke-miterlimit="10" stroke-linecap="round"/>
<path d="M4.07337 291.86C4.07337 291.86 -0.234558 278.587 1.35017 268.476C7.01994 271.808 9.45025 275.59 9.45025 275.59C9.45025 275.59 10.0354 271.931 16.9357 265.718C16.9357 265.718 18.387 277.311 17.0067 283.525C19.5559 280.012 22.5315 277.099 26.7259 275.905C26.7259 275.905 24.0517 291.555 17.3898 291.784" stroke="#005B9D" stroke-width="1.01001" stroke-miterlimit="10" stroke-linecap="round"/>
<path fill-rule="evenodd" clip-rule="evenodd" d="M308.362 0.690383C298.4 0.690383 290.323 8.77115 290.323 18.7386C290.323 28.7061 298.4 36.7868 308.362 36.7868C318.325 36.7868 326.401 28.7061 326.401 18.7386C326.401 8.77115 318.325 0.690383 308.362 0.690383ZM289.633 18.7386C289.633 8.38922 298.019 0 308.362 0C318.706 0 327.092 8.38922 327.092 18.7386C327.092 29.0873 318.706 37.477 308.362 37.477C298.019 37.477 289.633 29.0873 289.633 18.7386Z" fill="#B5CDFB"/>
<path d="M308.362 24.1835C311.368 24.1835 313.804 21.7459 313.804 18.7391C313.804 15.7323 311.368 13.2947 308.362 13.2947C305.357 13.2947 302.921 15.7323 302.921 18.7391C302.921 21.7459 305.357 24.1835 308.362 24.1835Z" fill="#9F8AFF"/>
<path fill-rule="evenodd" clip-rule="evenodd" d="M219.893 20.7599H189.944V20.0697H220.582V69.3195H219.893V20.7599Z" fill="#B5CDFB"/>
<path d="M30.203 63.8759V50.1486H44.6294" stroke="#005B9D" stroke-width="1.24375" stroke-miterlimit="10"/>
<path d="M154.041 194.322V235.688" stroke="#005B9D" stroke-width="1.24375" stroke-miterlimit="10"/>
<path d="M233.362 292.129C233.362 292.129 221.287 278.923 224.047 278.923C226.807 278.923 234.397 285.137 234.397 285.137C234.397 285.137 237.806 271.931 244.707 265.718C244.707 265.718 246.157 277.311 244.777 283.525C244.777 283.525 248.976 273.833 254.496 275.905C254.496 275.905 250.208 291.45 249.233 292.129" stroke="#005B9D" stroke-width="1.01001" stroke-miterlimit="10" stroke-linecap="round"/>
<path d="M59.3083 145.405C58.4817 145.405 57.7568 145.939 57.5521 146.74C56.6603 150.228 54.5255 160.099 55.67 170.949C57.4873 188.178 64.1933 209.791 64.1933 212.638C64.1933 217.721 56.3986 260.685 56.3986 260.685L63.3799 260.071C63.3799 260.071 74.3263 221.852 75.9361 211.952C74.3221 201.819 71.2 169.246 71.2 169.246H77.889C77.889 169.246 81.4644 203.433 82.6166 210.804C81.4644 215.408 80.4138 256.254 81.4813 259.999L88.2593 261.071L93.4402 211.265C93.4402 211.265 93.7597 181.401 91.555 162.451C90.963 157.363 89.8486 150.136 89.3511 146.981C89.2074 146.069 88.4222 145.405 87.4997 145.405H59.3083Z" fill="#8352FD"/>
<path d="M93.8635 208.495C92.6392 207.072 91.0761 206.75 90.3728 207.305C89.7035 207.83 89.7544 209.19 90.2924 210.003C91.2243 211.41 93.9355 211.647 95.5283 210.321C96.9771 209.114 97.1381 206.915 96.401 205.483C95.236 203.221 91.8894 202.992 89.7374 203.738C87.5134 204.509 85.1581 206.813 85.5351 209.368C86.0265 212.719 90.771 213.57 91.2455 213.651C91.6225 213.714 95.5114 214.29 98.3073 211.35C100.569 208.97 100.476 206.013 100.451 205.479" stroke="#0E0F25" stroke-width="0.534569" stroke-miterlimit="10" stroke-linecap="round"/>
<path d="M73.4834 211.258C72.2591 209.834 70.6959 209.512 69.9927 210.067C69.3234 210.593 69.3742 211.953 69.9122 212.766C70.8442 214.172 73.5554 214.41 75.1482 213.084C76.597 211.876 76.758 209.678 76.0209 208.246C74.8559 205.984 71.5093 205.755 69.3573 206.5C67.1333 207.271 64.7779 209.576 65.155 212.13C65.6464 215.481 70.3909 216.333 70.8654 216.413C71.2424 216.477 75.1313 217.053 77.9272 214.113C80.1893 211.732 80.0961 208.775 80.0707 208.242" stroke="#0E0F25" stroke-width="0.534569" stroke-miterlimit="10" stroke-linecap="round"/>
<path d="M90.5083 257.263L81.3454 256.89C79.2357 256.89 77.8589 259.097 78.7782 260.995C79.8923 263.291 81.0234 265.964 81.0234 267.349C81.0234 270.077 79.6763 268.798 80.4261 272.56C81.1759 276.321 78.6342 281.845 81.1801 282.311C83.7304 282.777 107.936 283.972 106.919 280.24C105.903 276.508 92.0206 274.371 92.0206 274.371C92.0206 274.371 91.9147 266.366 92.0206 264.159C92.0545 263.452 92.4654 262.482 93.0077 261.499C94.0498 259.592 92.6815 257.263 90.5083 257.263Z" fill="#0E0F25"/>
<path d="M64.1167 257.263L54.9537 256.89C52.8441 256.89 51.4673 259.097 52.3866 260.995C53.5007 263.291 48.8705 281.324 51.4165 281.79C53.9667 282.256 76.4949 284.099 75.4782 280.367C74.4615 276.635 63.5556 274.919 63.5556 274.919C63.5556 274.919 65.5189 266.362 65.6248 264.159C65.6587 263.452 66.0696 262.482 66.6118 261.499C67.6582 259.592 66.2899 257.263 64.1167 257.263Z" fill="#0E0F25"/>
<path d="M79.2994 101.964L82.8494 112.267L116.908 106.172C117.921 105.845 118.794 105.179 119.371 104.283L137.707 76.6533L131.73 73.3346L116.497 94.3625C115.788 95.3914 114.693 96.0908 113.46 96.2987L79.2994 101.964Z" fill="#FFBBA1"/>
<path d="M74.8561 95.2612L83.9145 114.181L100.291 111.186L98.6094 98.3431C98.6094 98.3431 90.8659 96.9213 86.1738 96.6554C81.5566 96.3938 74.8561 95.2612 74.8561 95.2612Z" fill="#373740"/>
<path d="M140.894 78.3777C140.993 78.2119 150.125 69.9863 149.147 67.2643C148.391 66.2976 144.985 69.8066 144.985 69.8066C144.985 69.8066 149.38 65.1856 148.198 64.1865C147.015 63.1875 142.841 67.8676 142.841 67.8676C142.841 67.8676 147.004 62.8878 145.931 61.953C144.854 61.0189 137.145 68.7477 137.145 68.7477C137.145 68.7477 137.053 64.7929 136.226 64.5629C133.947 63.9299 132.559 69.8579 131.723 71.58C131.46 72.1196 129.143 76.6122 130.363 77.5461C131.661 78.5393 131.815 80.2847 133.307 81.132C134.895 82.0409 140.894 78.3777 140.894 78.3777Z" fill="#FFBBA1"/>
<path d="M138.083 68.515C138.083 68.515 137.784 61.918 136.962 61.6874C134.682 61.0544 132.982 68.7704 132.146 70.4925C131.883 71.0321 128.673 74.2977 130.364 77.5519C131.119 79.0008 131.816 80.2905 133.308 81.1378C134.895 82.0422 138.083 68.515 138.083 68.515Z" fill="#FFBBA1"/>
<path d="M107.973 162.616C111.337 160.879 118.142 159.372 121.45 160.08L118.955 164.96C115.238 165.736 111.576 164.932 107.973 162.616Z" fill="#FFBBA1"/>
<path d="M55.5637 108.747C51.9407 119.945 57.879 127.485 57.9801 146.743C58.0049 151.436 86.7338 148.045 86.7338 148.045L89.7694 123.844C89.7694 106.846 88.9321 104.508 80.7639 95.0428C80.7639 95.0428 73.8973 90.0429 68.7954 92.8374C64.3243 95.2865 57.3567 103.205 55.5637 108.747Z" fill="#0E0F25"/>
<path d="M58.9209 128.771C59.7847 130.572 60.3867 131.748 60.3867 131.748C60.405 131.78 60.4188 131.803 60.4188 131.803L72.1817 151.028L108.371 169.766L109.74 163.448L80.8845 144.807L72.4758 121.91L71.3225 118.763C70.6425 116.599 69.8429 114.334 68.9607 112.33V112.321C68.5748 111.453 68.175 110.625 67.766 109.886C64.3704 103.784 59.9639 108.629 58.9209 114.378C58.3971 117.272 56.5407 123.831 58.9209 128.771Z" fill="#FFBBA1"/>
<path d="M62.7467 68.395C62.3436 66.8999 61.2029 65.2807 59.9822 64.4339C57.5588 62.7509 54.3371 61.7768 51.8311 62.88C49.325 63.9832 49.2423 63.7322 47.3054 66.2451C43.263 71.4822 39.91 79.1561 40.2026 86.4861C40.3681 90.6168 41.2693 96.3736 41.3003 100.091C41.3209 102.606 40.9625 106.245 40.1489 107.039C38.0058 109.135 37.2487 107.838 35.1551 107.964C37.8001 109.98 38.5735 110.976 42.9219 111.373C43.4711 111.421 49.786 110.493 51.5301 108.606C53.058 106.952 53.6715 102.349 53.876 100.754C55.1238 91.177 50.5839 83.1247 55.1728 74.5801C56.2811 72.507 60.5293 69.6844 62.7467 68.395Z" fill="#121430"/>
<path d="M64.2922 64.6428C64.4082 66.4696 61.692 69.2792 59.5915 70.2472C57.4911 71.2152 57.2867 73.3251 56.3141 71.2209C55.346 69.1205 58.0775 64.9472 60.178 63.9792C62.2826 63.0107 64.1473 62.333 64.2922 64.6428Z" fill="#00AB1C"/>
<path d="M83.5032 69.9488C83.5032 69.9488 85.8884 65.0388 84.0843 62.2816C82.2802 59.5243 74.8805 52.1828 65.438 59.6831C65.438 59.6831 60.9541 59.9115 58.5426 66.2744C56.3102 72.1772 56.3426 86.8752 68.7364 86.3626L83.5032 69.9488Z" fill="#121430"/>
<path d="M77.5177 88.4397L78.3741 96.0781L76.0763 97.1806L73.1266 92.3469L72.3325 87.0378L77.5177 88.4397Z" fill="#121430"/>
<path d="M73.1847 88.6695C73.1847 88.6695 81.2235 89.1252 84.0084 87.494C87.8086 85.2717 83.8355 68.3485 82.3629 67.7712C80.8903 67.1939 72.1594 63.6177 68.4763 71.0908C64.7932 78.5638 66.1329 79.0763 66.1329 79.0763C66.1329 79.0763 61.7623 79.6064 61.9161 82.2588C62.0698 84.9112 65.4566 86.0416 66.8999 85.2308C66.8999 85.2308 69.0564 92.7908 67.7522 96.3479C68.471 96.2304 70.8143 97.0513 73.2939 97.8081C76.3106 98.7288 79.545 100.38 79.545 100.38L77.9067 92.1054L73.1847 88.6695Z" fill="#FFBBA1"/>
<path d="M80.0823 72.5011C81.3791 75.067 84.0142 77.5311 83.8225 77.9801C83.488 78.7551 81.9448 79.3366 81.7938 79.3323" stroke="#121430" stroke-width="0.501624" stroke-miterlimit="10" stroke-linecap="round"/>
<path d="M74.054 76.3181C75.6306 73.6703 77.1072 73.881 77.1072 73.881" stroke="#121430" stroke-width="0.792434" stroke-miterlimit="10" stroke-linecap="round"/>
<path d="M85.356 70.6762C83.4523 70.8492 82.8168 71.3455 82.8168 71.3455" stroke="#121430" stroke-width="0.792434" stroke-miterlimit="10" stroke-linecap="round"/>
<path d="M77.5723 76.5959C77.7112 76.8995 77.5843 77.2577 77.2782 77.4006C77.1869 77.4443 77.0927 77.4631 76.9953 77.4528C76.7808 77.4429 76.5779 77.3143 76.4792 77.1069C76.3684 76.8673 76.4257 76.5966 76.6027 76.4218C76.6476 76.3749 76.7054 76.3307 76.7692 76.3027C77.0711 76.1602 77.4329 76.2881 77.5723 76.5959Z" fill="#121430"/>
<path d="M84.6678 73.2593C84.8067 73.5629 84.6798 73.9211 84.3773 74.0594C84.0754 74.2018 83.7131 74.0698 83.5742 73.7661C83.4311 73.463 83.5617 73.1002 83.8642 72.9619C84.1661 72.8194 84.5284 72.9515 84.6678 73.2593Z" fill="#121430"/>
<path d="M82.217 84.1011C81.6707 84.3041 80.1429 82.3403 80.0734 82.2808L83.1379 81.3966C83.0932 82.8163 82.6188 83.9518 82.217 84.1011Z" fill="white"/>
<path d="M64.9568 79.1988C64.9568 79.1988 68.1481 79.6679 69.1138 78.4453C70.0794 77.2226 69.3764 69.7282 73.0561 69.9165C76.7358 70.1048 84.1255 68.2024 86.3559 65.1705C88.5863 62.1387 80.3826 58.7803 80.3826 58.7803C80.3826 58.7803 70.8575 60.2507 69.3335 60.7143C68.2717 61.0382 63.3364 64.8793 60.4341 67.1857C59.2333 68.1413 59.0167 69.8795 59.9493 71.0997L64.9568 79.1988Z" fill="#121430"/>
<path d="M115.186 173.819C118.348 174.848 124.909 173.681 126.632 171.361C127.014 170.193 120.7 170.276 120.7 170.276C120.7 170.276 127.983 170.17 128.158 168.631C128.332 167.092 121.371 167.588 121.371 167.588C121.371 167.588 127.808 165.516 127.988 164.105C128.167 162.695 117.447 164.105 117.447 164.105C117.447 164.105 115.494 161.762 113.596 162.024C113.004 162.106 107.977 162.672 107.876 164.202C107.77 165.833 106.401 166.931 106.525 168.64C106.654 170.46 115.186 173.819 115.186 173.819Z" fill="#FFBBA1"/>
<path d="M57.0733 129.582L75.8546 125.642C75.1121 124.514 72.7145 111.873 67.3787 105.761C65.3108 103.393 66.9521 97.7401 64.5067 97.8216C61.148 97.9335 53.8256 105.018 52.6872 111.292C52.1634 114.187 54.6932 124.643 57.0733 129.582Z" fill="#0E0F25"/>
<path d="M254.376 102.951H224.255V100.408C224.255 98.3862 223.451 96.4475 222.02 95.0169C220.589 93.5864 218.648 92.7808 216.623 92.7771H193.377C191.352 92.7808 189.411 93.5864 187.98 95.0169C186.549 96.4475 185.746 98.3862 185.746 100.408V102.951H155.624C155.41 102.951 155.198 102.993 155 103.076C154.802 103.158 154.622 103.279 154.471 103.431C154.32 103.583 154.2 103.763 154.12 103.961C154.039 104.16 153.998 104.372 154 104.586V172.156C154 172.586 154.171 172.998 154.476 173.302C154.78 173.606 155.194 173.777 155.624 173.777H254.376C254.806 173.777 255.22 173.606 255.524 173.302C255.829 172.998 256 172.586 256 172.156V104.544C255.993 104.119 255.818 103.714 255.514 103.416C255.211 103.118 254.802 102.951 254.376 102.951ZM252.737 170.535H157.263V106.165H187.37C187.801 106.165 188.214 105.995 188.519 105.69C188.823 105.386 188.994 104.974 188.994 104.544V100.352C188.994 99.1902 189.456 98.0762 190.277 97.2536C191.099 96.4311 192.214 95.9671 193.377 95.9634H216.623C217.786 95.9671 218.901 96.4311 219.723 97.2536C220.544 98.0762 221.006 99.1902 221.006 100.352V104.544C221.006 104.974 221.177 105.386 221.482 105.69C221.786 105.995 222.199 106.165 222.63 106.165H252.737V170.535ZM178.394 136.729C178.394 141.981 179.954 147.114 182.878 151.481C185.801 155.847 189.957 159.251 194.818 161.261C199.68 163.27 205.03 163.796 210.191 162.772C215.352 161.747 220.093 159.218 223.813 155.505C227.534 151.791 230.068 147.06 231.095 141.909C232.122 136.758 231.595 131.42 229.581 126.568C227.567 121.716 224.157 117.569 219.782 114.651C215.406 111.733 210.262 110.176 205 110.176C197.944 110.176 191.176 112.974 186.187 117.953C181.197 122.933 178.394 129.687 178.394 136.729V136.729ZM228.386 136.729C228.386 141.342 227.015 145.851 224.448 149.686C221.88 153.521 218.231 156.511 213.961 158.277C209.691 160.042 204.993 160.505 200.46 159.606C195.926 158.707 191.762 156.487 188.493 153.227C185.224 149.966 182.997 145.812 182.093 141.288C181.19 136.764 181.651 132.075 183.418 127.813C185.184 123.55 188.178 119.907 192.019 117.342C195.861 114.777 200.378 113.407 205 113.404C211.197 113.408 217.14 115.867 221.522 120.24C225.904 124.614 228.368 130.544 228.372 136.729H228.386ZM233.301 114.369C233.301 113.939 233.472 113.526 233.776 113.222C234.081 112.918 234.494 112.748 234.925 112.748H243.831C244.262 112.748 244.675 112.918 244.98 113.222C245.284 113.526 245.456 113.939 245.456 114.369C245.456 114.799 245.284 115.211 244.98 115.515C244.675 115.819 244.262 115.99 243.831 115.99H234.911C234.492 115.99 234.089 115.829 233.786 115.54C233.484 115.251 233.305 114.856 233.287 114.439L233.301 114.369ZM209.089 120.783C209.311 120.82 209.523 120.902 209.712 121.024C209.9 121.147 210.062 121.307 210.185 121.495C210.308 121.683 210.391 121.895 210.428 122.117C210.465 122.338 210.455 122.565 210.4 122.783C210.344 123 210.244 123.204 210.105 123.381C209.967 123.558 209.793 123.705 209.594 123.811C209.396 123.917 209.178 123.981 208.953 123.999C208.729 124.017 208.503 123.988 208.291 123.914C205.44 123.198 202.431 123.449 199.739 124.63C197.047 125.81 194.826 127.851 193.426 130.43C192.025 133.01 191.526 135.982 192.006 138.877C192.486 141.772 193.918 144.425 196.076 146.417C198.235 148.409 200.996 149.627 203.926 149.879C206.855 150.13 209.785 149.402 212.253 147.807C214.721 146.212 216.586 143.843 217.555 141.073C218.524 138.303 218.541 135.289 217.603 132.508C217.534 132.307 217.506 132.093 217.519 131.88C217.533 131.667 217.589 131.459 217.683 131.268C217.777 131.077 217.908 130.906 218.069 130.765C218.229 130.624 218.416 130.516 218.618 130.447C218.821 130.378 219.034 130.35 219.248 130.364C219.461 130.377 219.669 130.433 219.861 130.527C220.053 130.621 220.224 130.752 220.366 130.912C220.507 131.072 220.615 131.258 220.684 131.46C221.861 134.932 221.846 138.696 220.639 142.158C219.433 145.619 217.104 148.58 214.022 150.573C210.939 152.565 207.28 153.476 203.621 153.159C199.962 152.843 196.514 151.318 193.821 148.826C191.128 146.335 189.344 143.018 188.752 139.401C188.16 135.784 188.793 132.073 190.551 128.855C192.31 125.638 195.093 123.097 198.46 121.635C201.828 120.173 205.588 119.873 209.145 120.783H209.089Z" fill="#1A2151"/>
</svg>
