<svg width="358" height="307" viewBox="0 0 358 307" fill="none" xmlns="http://www.w3.org/2000/svg">
<path d="M75.0075 234.547L80.0586 237.156L85.1442 229.063L79.4241 225.47L75.0075 234.547Z" fill="#FFC09E"/>
<path d="M83.8067 237.306L75.4082 263.797C74.2561 265.995 69.4785 263.452 69.3517 260.969L70.2712 235.624C70.2712 235.624 72.7368 233.088 74.6835 232.663C75.0759 232.576 75.3811 233.166 75.7018 233.657C76.0605 234.211 79.1728 231.77 83.8067 237.306Z" fill="#1A2151"/>
<path d="M135.273 127.766C135.132 126.644 134.178 125.814 133.048 125.814L105.488 125.814C104.856 125.814 104.257 126.074 103.883 126.583C101.79 129.425 95.5304 139.969 104.116 155.292C104.356 155.72 104.465 156.222 104.407 156.709L100.55 189.032C100.507 189.391 100.378 189.736 100.174 190.035L77.0879 223.906C76.1773 225.242 76.9261 227.074 78.5118 227.39L87.2088 229.121C88.0344 229.286 88.8829 228.977 89.4097 228.32L116.157 194.971C116.429 194.631 116.597 194.22 116.641 193.787L119.753 163.05C119.808 162.499 120.06 161.98 120.494 161.638C127.891 155.803 137.656 163.234 137.607 155.958C137.556 146.878 135.911 132.876 135.273 127.766Z" fill="#8352FD"/>
<path d="M120.072 254.333L126.288 254.108L129.668 245.169L123.351 242.776L120.072 254.333Z" fill="#FFC09E"/>
<path d="M130.06 253.3L132.662 280.972C132.46 283.447 127.07 282.963 125.983 280.732L116.945 257.034C116.945 257.034 118.228 253.737 119.849 252.586C120.178 252.354 120.684 252.777 121.176 253.104C121.724 253.471 123.634 250.007 130.06 253.3Z" fill="#1A2151"/>
<path d="M130.336 247.294L123.655 245.898C122.118 245.576 120.963 244.302 120.79 242.738L133.511 194.438L117.995 166.261C117.71 163.641 117.071 152.857 119.577 153.678L135.995 148.37C137.409 148.832 150.187 193.233 150.187 193.233C150.187 193.233 133.709 246.342 132.444 246.967C131.819 247.285 131.084 247.412 130.336 247.294Z" fill="#8352FD"/>
<path d="M149.036 194.326C147.431 192.871 145.605 192.726 144.875 193.46C144.186 194.158 144.435 195.704 145.165 196.556C146.43 198.029 149.566 197.92 151.198 196.175C152.68 194.589 152.558 192.05 151.511 190.518C149.861 188.098 145.999 188.311 143.642 189.467C141.208 190.663 138.842 193.632 139.63 196.502C140.664 200.264 146.212 200.567 146.77 200.59C147.209 200.608 151.737 200.717 154.516 196.959C156.769 193.918 156.238 190.546 156.134 189.943" stroke="black" stroke-width="0.530153" stroke-miterlimit="10"/>
<path d="M112.678 194.503C114.174 192.858 116.032 192.527 116.848 193.207C117.623 193.851 117.519 195.46 116.853 196.403C115.701 198.034 112.487 198.229 110.647 196.606C108.975 195.133 108.852 192.522 109.772 190.854C111.223 188.216 115.194 188.053 117.714 189.005C120.32 189.989 123.031 192.794 122.505 195.804C121.816 199.752 116.173 200.609 115.606 200.686C115.157 200.749 110.538 201.302 107.325 197.735C104.723 194.848 104.931 191.349 104.981 190.718" stroke="black" stroke-width="0.530153" stroke-miterlimit="10"/>
<path d="M129.518 42.1917C129.518 42.1917 135.402 83.7905 132.971 84.6022C130.541 85.4183 117.185 81.3773 117.185 81.3773L107.681 58.3074L117.593 40.6517L129.518 42.1917Z" fill="black"/>
<path d="M118.138 76.1461L120.082 72.636C120.082 72.636 108.902 70.2448 107.068 71.8375C105.234 73.4346 107.625 76.1461 107.625 76.1461H118.138Z" fill="#1A2151"/>
<path d="M70.4468 98.6775L102.138 91.5608C104.394 90.6789 105.512 88.1341 104.631 85.8789C103.749 83.6237 100.923 79.201 98.6679 80.0829L72.6977 88.3798L51.6723 69.4781C49.9875 67.7362 48.2675 68.4952 46.5257 70.1801C44.7838 71.8649 46.5476 73.541 48.2324 75.2828L70.4468 98.6775Z" fill="#FFC09E"/>
<path d="M114.414 72.9566C113.853 72.9873 101.023 77.9365 97.2631 82.4996C93.5029 87.0627 99.3209 96.9129 100.918 105.662C102.515 114.411 101.319 124.745 104.62 126.36C107.922 127.975 123.304 130.255 131.904 126.303C135.98 117.41 133.842 107.974 134.663 105.341C138.678 92.4639 139.687 77.9277 139.687 77.9277L120.689 73.8834L114.414 72.9566Z" fill="#1A2151"/>
<path d="M121.641 87.2867C121.019 87.2867 120.514 86.7818 120.514 86.159C120.514 85.5363 121.019 85.0314 121.641 85.0314C122.264 85.0314 122.769 85.5363 122.769 86.159C122.769 86.7818 122.264 87.2867 121.641 87.2867Z" fill="#121212"/>
<path d="M120.76 95.5133C120.138 95.5133 119.633 95.0085 119.633 94.3857C119.633 93.763 120.138 93.2581 120.76 93.2581C121.383 93.2581 121.888 93.763 121.888 94.3857C121.888 95.0085 121.383 95.5133 120.76 95.5133Z" fill="#121212"/>
<path d="M130.485 46.6314C130.485 46.6314 130.884 37.4043 128.971 34.1355C127.058 30.8668 113.79 30.1604 110.333 33.8021C110.333 33.8021 105.168 33.8065 102.036 40.9714C99.1311 47.623 98.3194 64.5021 112.584 64.6249L130.485 46.6314Z" fill="black"/>
<path d="M119.705 68.5335L117.814 71.3196L115.655 72.0655L111.728 71.8988V66.932L119.705 68.5335Z" fill="black"/>
<path d="M116.532 65.8009C116.532 65.8009 119.731 67.9815 122.947 66.3142C124.592 65.4586 127.115 61.286 128.242 56.3851C129.778 49.7247 128.515 44.4903 127.501 44.034C125.882 43.3057 115.562 39.1462 111.008 47.3159C106.458 55.4856 107.932 56.135 107.932 56.135C107.932 56.135 106.783 63.9054 108.446 63.0762C108.446 63.0762 108.893 67.2532 109.525 68.9468C109.933 70.0349 109.854 76.9015 113.483 77.3754C115.523 77.6386 117.383 77.937 118.002 75.7256C118.743 73.0711 118.195 69.5435 118.195 69.5435L116.532 65.8009Z" fill="#FFC09E"/>
<path d="M122.689 50.1812C122.807 53.4017 124.338 57.1487 123.93 57.5129C123.224 58.1491 121.368 58.0131 121.214 57.9341" stroke="black" stroke-width="0.394779" stroke-miterlimit="10" stroke-linecap="round"/>
<path d="M115.317 50.6329C117.362 49.2684 118.511 49.8431 118.511 49.8431" stroke="black" stroke-width="0.623616" stroke-miterlimit="10" stroke-linecap="round"/>
<path d="M128.437 50.0891C126.344 49.6108 125.497 49.9136 125.497 49.9136" stroke="black" stroke-width="0.623616" stroke-miterlimit="10" stroke-linecap="round"/>
<path d="M126.801 52.599C126.845 52.9675 124.91 53.2001 124.866 52.8315C124.822 52.4586 125.217 52.1032 125.757 52.0418C126.288 51.9759 126.757 52.226 126.801 52.599Z" fill="black"/>
<path d="M118.451 52.7827C118.495 53.1513 116.56 53.3838 116.516 53.0152C116.472 52.6423 116.867 52.2869 117.406 52.2255C117.937 52.1597 118.407 52.4098 118.451 52.7827Z" fill="black"/>
<path d="M122.141 63.6864C121.377 63.7522 119.916 61.1943 119.842 61.1109L124.071 60.9968C123.628 62.5281 122.702 63.6338 122.141 63.6864Z" fill="white"/>
<path d="M184.411 28.6067C186.218 24.6798 186.512 15.58 184.257 14.0663C182.91 13.6933 182.164 19.2041 182.164 19.2041C182.164 19.2041 183.064 12.0041 181.309 11.8944C179.554 11.7847 178.891 18.8882 178.891 18.8882C178.891 18.8882 179.339 11.5083 177.724 11.381C176.109 11.2538 174.267 23.5391 174.267 23.5391C174.267 23.5391 171.507 19.9807 170.598 20.3274C168.084 21.2882 170.967 25.7592 171.296 27.9179C171.783 31.1252 171.63 32.7706 171.875 34.9556C172.283 38.5973 178.435 36.8642 181.326 33.7402C182.076 32.9285 183.95 29.6115 184.411 28.6067Z" fill="#FFC09E"/>
<path d="M41.0147 71.639C40.9125 71.4506 30.9262 61.9647 32.1045 58.9462C32.9816 57.8862 36.6888 61.9163 36.6888 61.9163C36.6888 61.9163 31.9054 56.6057 33.2613 55.5242C34.6172 54.4427 39.1477 59.8125 39.1477 59.8125C39.1477 59.8125 34.6334 54.1091 35.8656 53.0975C37.0977 52.086 45.5021 60.9693 45.5021 60.9693C45.5021 60.9693 45.7227 56.5411 46.659 56.3097C49.2309 55.6694 50.6083 62.3467 51.4907 64.3052C51.7651 64.9186 55.1015 72.2904 53.708 73.3019C52.2229 74.378 51.1248 74.0548 49.4353 74.9588C47.6221 75.9219 41.0147 71.639 41.0147 71.639Z" fill="#FFC09E"/>
<path d="M144.899 86.3125C145 86.2686 145.101 86.2204 145.202 86.1721L168.614 74.0492L182.531 29.3396C183.251 27.0273 181.961 24.5659 179.644 23.8463C177.332 23.1268 174.87 24.4167 174.151 26.7334L161.326 67.9417L141.169 78.3797C139.019 79.4942 138.177 82.1399 139.291 84.2942C140.349 86.3432 142.81 87.2032 144.899 86.3125Z" fill="#FFC09E"/>
<path d="M121.912 75.5646C121.912 75.5646 140.608 76.1108 144.224 74.7594C149.107 72.9342 153.359 72.061 153.359 72.061L151.564 90.6074L135.273 91.5639L132.061 83.0563L121.912 75.5646Z" fill="#1A2151"/>
<path d="M110.295 73.7165C110.295 73.7165 103.165 75.5881 99.1775 76.5944C93.1129 78.1246 86.8084 83.1323 86.8084 83.1323L91.3627 99.7613L102.955 95.5184L110.295 73.7165Z" fill="#1A2151"/>
<path d="M121.243 71.2764L117.812 71.3202L115.044 79.5514L121.379 76.1466L121.243 71.2764Z" fill="#1A2151"/>
<path d="M110.921 71.2764L114.356 71.3202L117.12 79.5514L110.789 76.1466L110.921 71.2764Z" fill="#1A2151"/>
<path d="M101.504 71.1235C101.605 72.1634 100.912 85.0278 101.956 85.0804C104.47 85.1989 109.779 83.0007 112.271 81.3071C114.355 79.8899 113.513 58.4477 113.276 55.4027C113.043 52.3709 115.228 45.8597 119.344 46.2809C123.459 46.7021 133.639 48.4484 135.003 44.4469C137.539 37.0143 127.013 33.9913 127.013 33.9913C127.013 33.9913 116.255 35.1013 114.522 35.5401C113.315 35.8472 107.567 39.8706 104.18 42.2926C102.781 43.293 102.359 47.1935 100.381 50.8791L101.504 71.1235Z" fill="black"/>
<path d="M242.368 160.581C242.075 160.581 241.795 160.465 241.588 160.258L206.323 124.993C205.892 124.563 205.892 123.865 206.323 123.435L219.547 110.21C219.978 109.78 220.675 109.78 221.106 110.21L242.442 131.547L299.277 75.3189C299.708 74.8919 300.402 74.8941 300.831 75.323L313.677 88.1693C314.108 88.5998 314.108 89.2976 313.677 89.7278L243.146 160.259C242.94 160.465 242.66 160.581 242.368 160.581ZM208.661 124.214L242.368 157.92L311.34 88.9482L300.048 77.6563L243.213 133.884C242.782 134.311 242.088 134.309 241.659 133.88L220.327 112.548L208.661 124.214Z" fill="black"/>
<path fill-rule="evenodd" clip-rule="evenodd" d="M339.597 252.552V207.358H340.294V253.248H259.633V252.552H339.597Z" fill="#B5CDFB"/>
<path fill-rule="evenodd" clip-rule="evenodd" d="M1 124H35.8407V194.302H50V195H35.3881V124.698H1V124Z" fill="#B5CDFB"/>
<path fill-rule="evenodd" clip-rule="evenodd" d="M192 188.318V154H192.696V188.318H192Z" fill="#B5CDFB"/>
<path d="M1 305.7H344" stroke="#005B9D" stroke-width="1.01001" stroke-miterlimit="10" stroke-linecap="round"/>
<path fill-rule="evenodd" clip-rule="evenodd" d="M200.269 38.7087L199.696 68.9037L199 68.8904L199.586 38L249.241 38.9426L249.228 39.6381L200.269 38.7087Z" fill="#B5CDFB"/>
<path d="M281.381 29.8963H357.081" stroke="#78D2EE" stroke-width="1.24375" stroke-miterlimit="10"/>
<path d="M281.381 24.4064H357.081" stroke="#78D2EE" stroke-width="1.24375" stroke-miterlimit="10"/>
<path d="M9.44849 75.4125V61.5699H23.9961" stroke="#005B9D" stroke-width="1.24375" stroke-miterlimit="10"/>
</svg>
